<?xml version="1.0" encoding="UTF-8" standalone="no"?>
<svg
   xmlns:dc="http://purl.org/dc/elements/1.1/"
   xmlns:cc="http://creativecommons.org/ns#"
   xmlns:rdf="http://www.w3.org/1999/02/22-rdf-syntax-ns#"
   xmlns:svg="http://www.w3.org/2000/svg"
   xmlns="http://www.w3.org/2000/svg"
   height="100"
   width="100"
   id="svg10"
   xml:space="preserve"
   enable-background="new 0 0 100 100"
   viewBox="0 0 100 100"
   y="0px"
   x="0px"
   version="1.1"><metadata
     id="metadata16"><rdf:RDF><cc:Work
         rdf:about=""><dc:format>image/svg+xml</dc:format><dc:type
           rdf:resource="http://purl.org/dc/dcmitype/StillImage" /><dc:title></dc:title></cc:Work></rdf:RDF></metadata><defs
     id="defs14" /><g
     style="fill:#000000;fill-opacity:1"
     id="g4"><path
       style="fill:#000000;fill-opacity:1"
       id="path2"
       d="M 33.224,87.771 11.478,66.025 c -1.232,-1.232 -0.978,-2.68 10e-4,-3.66 0.977,-0.977 2.426,-1.232 3.659,0 l 21.746,21.746 c 1.233,1.232 0.978,2.682 0,3.66 -0.98,0.979 -2.427,1.233 -3.66,0 z m 54.76,-75.688 c 14.459,14.459 14.458,37.819 0.05,52.227 -7.359,7.36 -17.129,10.965 -26.798,10.78 -3.404,0.312 -6.682,1.777 -13.688,8.186 -1.688,1.543 -3.62,1.096 -4.819,-0.215 -1.198,-1.309 -1.471,-3.275 0.215,-4.818 7.423,-6.791 12.281,-9.508 18.106,-9.971 7.927,0.189 16.117,-2.742 22.159,-8.785 C 94.955,47.741 94.953,28.7 83.152,16.897 71.406,5.153 52.371,5.158 40.625,16.902 c -6.041,6.041 -8.972,14.23 -8.784,22.156 -0.463,5.826 -3.18,10.684 -9.971,18.109 -1.542,1.686 -3.509,1.414 -4.818,0.215 -1.309,-1.199 -1.757,-3.133 -0.215,-4.818 6.409,-7.007 7.875,-10.284 8.185,-13.688 -0.185,-9.67 3.42,-19.438 10.78,-26.798 C 50.21,-2.33 73.575,-2.325 87.984,12.083 Z M 27.208,93.787 5.462,72.041 c -1.233,-1.232 -0.979,-2.68 0,-3.66 0.979,-0.979 2.427,-1.232 3.659,0 l 21.746,21.748 c 1.233,1.23 0.979,2.678 0,3.656 -0.979,0.981 -2.427,1.235 -3.659,0.002 z M 18.844,97.455 1.794,80.408 c -1.233,-1.236 -0.979,-2.682 0,-3.662 0.979,-0.979 2.426,-1.232 3.66,0 l 17.049,17.051 c 1.232,1.23 0.979,2.68 0,3.658 -0.98,0.981 -2.427,1.234 -3.659,0 z M 13.766,97.316 C 10.884,98.369 7.165,97.445 4.448,94.726 1.729,92.009 0.806,88.29 1.86,85.408 Z" /></g></svg>